<?xml version="1.0" encoding="utf-8"?>
<!-- Generator: Adobe Illustrator 27.2.0, SVG Export Plug-In . SVG Version: 6.00 Build 0)  -->
<svg version="1.1" id="Capa_1" xmlns="http://www.w3.org/2000/svg" xmlns:xlink="http://www.w3.org/1999/xlink" x="0px" y="0px"
	 viewBox="0 0 595.28 595.28" style="enable-background:new 0 0 595.28 595.28;" xml:space="preserve">
<style type="text/css">
	.st0{fill:url(#SVGID_1_);}
	.st1{fill:#03EA82;}
	.st2{fill:#FAFAFA;}
	.st3{fill:#151514;}
	.st4{fill:#A47957;}
	.st5{fill:url(#SVGID_00000026164391298196072710000016422505372044906152_);}
	.st6{fill:#03DDC8;}
	.st7{fill:#E94B47;}
	.st8{fill:#3767FF;}
	.st9{fill:#F88F2C;}
	.st10{fill:#030303;}
	.st11{fill:#FFFFFF;stroke:#1D1D1B;stroke-miterlimit:10;}
	.st12{fill:#FFFFFF;}
</style>
<linearGradient id="SVGID_1_" gradientUnits="userSpaceOnUse" x1="-0.1378" y1="0.1378" x2="594.8622" y2="595.1378">
	<stop  offset="0" style="stop-color:#29292A"/>
	<stop  offset="0.3371" style="stop-color:#1A1A1B"/>
	<stop  offset="1" style="stop-color:#000000"/>
</linearGradient>
<rect x="-0.14" y="0.14" class="st0" width="595" height="595"/>
<path class="st2" d="M274.56,203.46c-8.73,5.44-11.01,13.88-11.99,22.67c-0.47,4.27-1.76,13.83-6.5,7.19
	c-4.74-6.64-1.9-20.85-1.9-20.85c3.32-11.85,10.9-18.96,10.9-18.96c5.69-3.79,10.9-9.95,10.9-9.95s7.11-18.49-2.84-18.96
	c-9.95-0.47-17.06,10.43-19.43,21.33c-2.37,10.9-10.43,18.96-13.27,23.22c-5.8,8.71-12.62,17.91-15.79,27.96
	c-2.54,8.06-3.35,16.53-4.35,24.88c-0.62,5.2-0.71,10.09-0.42,15.28c0.09,1.54,0.42,7.44-2.39,7.16c-3.21-0.33-4.56-8.12-5.67-10.35
	c-4.74-9.48-0.02-26.33,1.4-38.18c1.66-13.83,11.28-25.79,18.85-36.93c3.51-5.16,10.95-11.96,9.08-19.41
	c-2.72-10.86-27.98,12.54-31.21,16.2c-9.3,10.56-16.77,23.41-20.94,36.88c-3.21,10.36-3.93,22.7-5.12,33.53
	c-4.27,38.74,2.05,60.05,2.05,60.05c2.84,18.49,8.06,32.23,16.12,43.13c3.55,4.8,6.96,7.99,9.66,10.06
	c1.66,1.27,3.98-0.33,3.34-2.32c-0.88-2.76-0.44-5.67-0.44-7.55c0-3.79-5.26-9.55-7.92-12.57c-3.33-3.78-0.43-10.42-0.93-14.9
	c-0.47-4.19-2.79-14.43-1.4-19.09c0.69-2.29,1.86-6.98,3.26-8.38c0.5-0.5,0.92-0.76,1.63-0.67c3.82,0.49,3.17,9.28,3.49,12.31
	c1.86,17.23,8.38,17.23,10.15,34.58c2.68,26.3,21.77,37.57,34.84,40.52c10.34,2.34,13.16,9.17,16.48,9.17c3.9,0,3.14-3.89,0.47-7.45
	c-4.19-5.59-9.99-12.41-11.02-13.81c0,0-4.27-3.79-3.79-10.9c0.47-7.11,1.42-14.93-4.98-17.77c-4.27-1.9-3.92,1.88-4.74,3.79
	c-0.67,1.55-2.4,4.26-3.79,5.21c-5,3.4-7.48-0.98-8.29-5.45c-0.95-5.21,4.74-9.48,0.95-19.91c-3.79-10.43-5.21-17.06-5.21-19.43
	c0-2.37-0.95-9.48,1.96-16.44c2.91-6.96,15.1-17.21,17.94-19.11c2.84-1.9,4.74-9.95,5.21-18.49c0.47-8.53,6.16-9.95,8.06-5.21
	c1.9,4.74,0.59,22.03,0.59,22.03c-2.25,8.76-10.07,10.2-16.71,24.89c-6.64,14.69,2.37,27.49,14.22,36.5
	c11.85,9.01,7.11,19.43,9.95,29.39c2.84,9.95,6.59,12.28,9.95,8.92c3.36-3.36,4.46-179.72,1.33-187.22
	C283.99,194.46,278.91,200.74,274.56,203.46z"/>
<path class="st2" d="M393.52,206.77c-4.27-4.27-10.28-9.95-14.55-11.85c-4.27-1.9-4.22,6.4-3.73,13.04
	c0.52,7.03,1.86,13.04,1.86,22.82c0,9.53,5.38,13.41,6.98,14.43c5.12,3.26,5.12-3.68,5.12-6.05s-1.03-6.54,1.46-7.74
	c1.33-0.64,6.45-0.18,6.92,12.86c0.22,6.22-0.95,11.96-1.4,18.16c-0.5,6.92,1.19,15.17-1.81,21.58c-0.52,1.1-2.44,4.73-4.22,3.56
	c-1.42-0.92-1.88-2.27-1.88-9.77c0-10.24-2.81-15.05-5.59-18.16c-2.72-3.04-17.14-10.22-16.67-25.86
	c0.47-15.64-3.32-35.55-3.79-42.18c-0.31-4.36-2.81-7.36-5.08-10.87c-4.12-6.4-14.13-11.39-20.1-12.81
	c-14.13-3.38-6.52,14.9-2.79,24.21c2.5,6.24,4.61,9.25,6.05,15.83c2.76,12.6-7.92,21.28-7.92,29.33c0,8.06-0.98,17.82-4.77,15.45
	c-3.79-2.37-6.16-6.64-5.69-17.06c0.47-10.43,3.32-9.95,5.69-18.48c2.37-8.53-1.9-15.64-3.76-19.91
	c-1.62-3.72-11.03-19.08-13.45-23.01c-0.28-0.46-0.55-0.92-0.79-1.39c-0.75-1.44-3.25-5.45-6.41-1.9
	c-3.79,4.27-2.84,54.03-2.84,54.03l-0.11,94.73c0,0,0.11,5.61,0,12.07c-0.12,6.67,1.97,13.12,5.36,14.25
	c3.66,1.22,7.16-2.69,8.73-5.52c1.84-3.31,2.69-7.17,3.07-10.91c0.84-8.43,0.33-18.21,1.26-26.12c0.97-8.21,2.73-15.19,8.59-20.59
	c2.16-1.99,11.64-10.71,14.57-6.01c1.83,2.93-3.82,9.65-6.19,14.39c-0.49,0.99-1.86,3.8-2.27,4.9c-1.62,4.43-2.42,9.1-2.49,13.82
	c-0.09,6.71-0.13,18.26,0.52,24.72c0.95,9.48-4.14,15.7-6.47,19.42c-2.25,3.6-11.57,10.06-15.37,20.49
	c-3.79,10.43-3.8,24.62-2.33,27.94c8.02,18.09,18.77-8.97,24.21-13.5c2.85-2.37,16.76-16.76,21.28-30.65
	c2.52-7.75,4.47-15.99,5.49-24.02c0.51-4.06,0.91-8.15,1.1-12.24c0.14-2.88-0.72-7.33,0.45-9.95c1.68-3.78,6.35-1.22,7.18,2.13
	c2.8,11.22,1.6,27.5,0.47,36.02c-1.49,11.29-5.69,20.85-9.01,24.65c-3.32,3.79-7.11,8.53-7.58,10.9c-0.47,2.37,0.47,9.01,9.01,4.74
	c8.53-4.27,18.48-22.75,22.75-29.86c4.27-7.11,5.69-20.38,5.69-27.96c0-7.58,0.48-9.06,2.84-8.53c4.27,0.95,4.71,5.46,5.21,11.38
	c0.51,5.97-0.41,13-0.95,18.96c-0.26,2.82,1.41,4.84,2.24,3.91c6-6.72,12.32-25.68,13.24-37.25c1.47-18.56,2.58-36.98,1.6-55.61
	C411.46,245.99,408.12,221.37,393.52,206.77z"/>
<path class="st2" d="M286.79,92.76c-3.84-3.33-8.31-5.76-12.11-9.12c-2.3-2.03-7.45-5.12-8.51-6.09c-0.92-0.84-5.96-4.85-8.25-5.08
	c-2.15-0.22-3.11,2.07-3.69,3.73c-0.89,2.55-1.62,5.03-2.72,7.53c-4.68,10.69-11.88,20.76-13.61,32.5
	c-0.7,4.73-0.58,9.68,0.96,14.24c1.06,3.15,2.69,5.96,4.73,8.4c4.59,5.51,14.16,11.87,23.18,11.34c4.91-0.29,8.55-3.07,9.45-7.99
	c0.88-4.8-0.33-9.93-1.82-14.48c-0.76-2.33-1.65-4.62-2.73-6.82c-1.08-2.19-2.59-4.02-4.03-5.98c-0.42-0.57-3.06-4.04-1.08-4.19
	c1.68-0.12,4.07,1.21,5.34,2.2c8.38,6.52,9.78,11.18,11.18,14.9c1.4,3.72,2.33,16.3,6.52,18.16c4.19,1.86,11.13-8.71,12.57-20.95
	C303.72,111.73,296.55,101.22,286.79,92.76z"/>
<path class="st2" d="M317.51,142.31c4.42-6.95,10.24-8.38,13.5-7.92c3.26,0.47,3.73,0.93,1.4,1.86c-2.33,0.93-6.52,4.19-9.31,8.38
	c-1.54,2.31-5.12,9.78,1.19,11c3.33,0.65,7.06-2.6,9.52-4.48c5.73-4.38,10.36-10.95,12.83-17.7c0.39-1.08,2.84-7.34,1.13-7.91
	c-8.13-2.71-17.66-3.15-25.79-0.1c-3.72,1.39-6.96,3.74-9.6,6.62c-2.4,2.62-4.15,5.45-4.58,9.11c-0.11,0.97-0.08,2.99,0.39,3.92
	C309.97,148.64,314.25,147.43,317.51,142.31z"/>
<g>
	<path class="st2" d="M171.27,514.08l-39.41-49.61c-0.37-0.46-0.93-0.73-1.52-0.73h-3c-1.07,0-1.94,0.87-1.94,1.94v63.56
		c0,1.07,0.87,1.94,1.94,1.94h3.25c1.07,0,1.94-0.87,1.94-1.94v-47.18c0-1.84,2.31-2.64,3.45-1.2l39.31,49.59
		c0.37,0.46,0.93,0.73,1.52,0.73h3c1.07,0,1.94-0.87,1.94-1.94v-63.56c0-1.07-0.87-1.94-1.94-1.94h-3.16
		c-1.07,0-1.94,0.87-1.94,1.94v47.2C174.72,514.71,172.41,515.52,171.27,514.08z"/>
	<path class="st2" d="M241.1,507.09c0,3.85-0.69,7.16-2.07,9.92c-1.38,2.76-3.37,4.86-5.97,6.31c-2.6,1.45-5.67,2.17-9.2,2.17
		c-4.82,0-8.56-1.36-11.22-4.09c-2.67-2.73-4-6.79-4-12.19v-26.67c0-1.07-0.87-1.94-1.94-1.94h-2.97c-1.07,0-1.94,0.87-1.94,1.94
		v27.44c0,4.82,0.88,8.83,2.65,12.04c1.77,3.21,4.25,5.62,7.47,7.23c3.21,1.61,6.97,2.41,11.27,2.41c4.49,0,8.43-1.04,11.8-3.13
		c1.16-0.72,2.21-1.53,3.16-2.44c1.22-1.17,3.25-0.27,3.25,1.42v1.74c0,1.07,0.87,1.94,1.94,1.94H246c1.07,0,1.94-0.87,1.94-1.94
		v-46.7c0-1.07-0.87-1.94-1.94-1.94h-2.97c-1.07,0-1.94,0.87-1.94,1.94V507.09z"/>
	<path class="st2" d="M283.77,525.78c-2.83,0-4.99-0.8-6.5-2.41c-1.51-1.6-2.26-3.88-2.26-6.84v-28.31c0-1.07,0.87-1.94,1.94-1.94
		h11.54c1.07,0,1.94-0.87,1.94-1.94v-1.81c0-1.07-0.87-1.94-1.94-1.94h-11.54c-1.07,0-1.94-0.87-1.94-1.94v-7.3
		c0-1.07-0.87-1.94-1.94-1.94h-2.97c-1.07,0-1.94,0.87-1.94,1.94v7.3c0,1.07-0.87,1.94-1.94,1.94h-5.18c-1.07,0-1.94,0.87-1.94,1.94
		v1.81c0,1.07,0.87,1.94,1.94,1.94h5.18c1.07,0,1.94,0.87,1.94,1.94v28.7c0,4.69,1.28,8.32,3.85,10.89
		c2.57,2.57,6.23,3.85,10.98,3.85c1.99,0,3.93-0.29,5.83-0.87c1.29-0.39,2.45-0.93,3.48-1.62c0.82-0.55,1.12-1.6,0.69-2.49
		l-0.72-1.48c-0.49-1.01-1.73-1.37-2.71-0.82C287.91,525.32,285.98,525.78,283.77,525.78z"/>
	<path class="st2" d="M345.95,497.84c-2.35-1.35-4.95-2.44-7.8-3.28c-2.86-0.83-5.73-1.59-8.62-2.26c-2.89-0.67-5.51-1.36-7.85-2.07
		c-2.35-0.71-4.24-1.69-5.68-2.94c-1.45-1.25-2.17-2.91-2.17-4.96c0-1.73,0.5-3.28,1.49-4.62c1-1.35,2.57-2.44,4.72-3.28
		c2.15-0.83,4.96-1.25,8.43-1.25c2.95,0,6.04,0.43,9.25,1.3c2.55,0.69,5.05,1.67,7.48,2.95c1.01,0.53,2.26,0.08,2.69-0.98l2.51-6.17
		c0.37-0.91,0-1.94-0.85-2.42c-2.62-1.5-5.6-2.67-8.94-3.54c-3.98-1.03-8-1.54-12.04-1.54c-6.17,0-11.26,0.91-15.27,2.74
		c-4.01,1.83-7,4.27-8.96,7.32c-1.96,3.05-2.94,6.41-2.94,10.07c0,3.6,0.74,6.55,2.22,8.86c1.48,2.31,3.39,4.16,5.73,5.54
		c2.34,1.38,4.94,2.5,7.8,3.37c2.86,0.87,5.72,1.62,8.57,2.26c2.86,0.64,5.46,1.33,7.8,2.07c2.34,0.74,4.25,1.73,5.73,2.99
		c1.48,1.25,2.22,2.91,2.22,4.96c0,1.67-0.51,3.16-1.54,4.48c-1.03,1.32-2.63,2.36-4.82,3.13c-2.18,0.77-5.04,1.16-8.57,1.16
		c-4.18,0-8.25-0.71-12.23-2.12c-3.1-1.1-5.81-2.41-8.13-3.94c-1.01-0.66-2.37-0.3-2.86,0.81l-2.75,6.18
		c-0.37,0.84-0.11,1.82,0.63,2.36c2.67,1.94,6.07,3.56,10.21,4.85c4.82,1.51,9.86,2.26,15.12,2.26c6.17,0,11.27-0.92,15.32-2.75
		s7.05-4.27,9.01-7.32c1.96-3.05,2.94-6.37,2.94-9.97c0-3.53-0.72-6.45-2.17-8.77C350.19,501.02,348.3,499.19,345.95,497.84z"/>
	<path class="st2" d="M400.81,482.43c-3.92-2.18-8.38-3.28-13.39-3.28c-5.14,0-9.71,1.12-13.73,3.37c-4.01,2.25-7.16,5.35-9.44,9.3
		c-2.28,3.95-3.42,8.49-3.42,13.63c0,5.07,1.17,9.6,3.52,13.58c2.34,3.98,5.65,7.11,9.92,9.39c4.27,2.28,9.26,3.42,14.98,3.42
		c4.49,0,8.49-0.72,11.99-2.17c2.9-1.2,5.39-2.82,7.48-4.88c0.73-0.72,0.76-1.88,0.09-2.65l-4-4.59c-0.7-0.8-1.9-0.85-2.7-0.15
		c-1.45,1.25-3.03,2.22-4.77,2.89c-2.31,0.9-4.91,1.35-7.8,1.35c-3.34,0-6.29-0.64-8.86-1.93c-2.57-1.28-4.56-3.11-5.97-5.49
		c-0.45-0.75-0.82-1.53-1.13-2.36c-0.46-1.24,0.51-2.56,1.83-2.56h36.03c1.02,0,1.88-0.79,1.93-1.81c0-0.01,0-0.01,0-0.02
		c0.03-0.64,0.05-1.22,0.05-1.73c0-5.39-1.12-10.08-3.37-14.06C407.81,487.7,404.73,484.61,400.81,482.43z M374.47,496.06
		c1.25-2.28,2.99-4.06,5.2-5.35c2.22-1.28,4.8-1.93,7.76-1.93c2.89,0,5.44,0.64,7.66,1.93c2.22,1.29,3.96,3.05,5.25,5.3
		c0.51,0.89,0.91,1.83,1.2,2.83c0.36,1.23-0.58,2.47-1.87,2.47h-24.48c-1.29,0-2.24-1.24-1.87-2.47
		C373.61,497.85,373.99,496.93,374.47,496.06z"/>
	<path class="st2" d="M455.67,519.81c-2.22,1.16-4.61,1.73-7.18,1.73c-2.95,0-5.62-0.64-8-1.93c-2.38-1.28-4.24-3.13-5.59-5.54
		c-1.35-2.41-2.02-5.28-2.02-8.62c0-3.34,0.67-6.21,2.02-8.62c1.35-2.41,3.21-4.25,5.59-5.54c2.38-1.28,5.04-1.93,8-1.93
		c2.57,0,4.96,0.58,7.18,1.73c1.77,0.92,3.32,2.25,4.66,3.99c0.6,0.78,1.67,1,2.52,0.51l6.06-3.53c0.93-0.54,1.26-1.76,0.69-2.68
		c-1.92-3.08-4.51-5.48-7.75-7.2c-3.82-2.02-8.24-3.03-13.25-3.03c-5.39,0-10.2,1.12-14.4,3.37c-4.21,2.25-7.5,5.35-9.87,9.3
		c-2.38,3.95-3.56,8.49-3.56,13.63c0,5.07,1.19,9.6,3.56,13.58c2.38,3.98,5.67,7.11,9.87,9.39c4.21,2.28,9.01,3.42,14.4,3.42
		c5.01,0,9.42-1.04,13.25-3.13c3.23-1.77,5.81-4.16,7.73-7.2c0.58-0.92,0.26-2.14-0.68-2.69l-6.05-3.53
		c-0.85-0.49-1.92-0.27-2.52,0.51C458.99,517.56,457.44,518.89,455.67,519.81z"/>
</g>
</svg>
