<?xml version="1.0" encoding="utf-8"?>
<!-- Generator: Adobe Illustrator 27.2.0, SVG Export Plug-In . SVG Version: 6.00 Build 0)  -->
<svg version="1.1" id="Capa_1" xmlns="http://www.w3.org/2000/svg" xmlns:xlink="http://www.w3.org/1999/xlink" x="0px" y="0px"
	 viewBox="0 0 1024 1024" style="enable-background:new 0 0 1024 1024;" xml:space="preserve">
<style type="text/css">
	.st0{fill:#A47957;}
	.st1{fill:#03EA82;}
</style>
<g>
	<path d="M806.7,563.08c-1.89-35.96-7.13-73.09-20.85-106.9c-13.52-33.32-35.41-56.19-61.75-79.6c-9.3-8.26-18.93-16.11-28.99-23.43
		C670.79,335.47,635.43,320,635.43,320l-0.35-0.05c-8.99-4.56-17.71-7.7-24.35-9.29c-0.1-0.02-0.2-0.04-0.3-0.06
		c0.29-0.22,0.59-0.46,0.86-0.67c16.56-12.67,30.34-31.61,37.79-51.97l0.16-0.43c5.06-13.59,7.46-24.65,2.75-34.51
		c-2.84-5.94-7.8-10.34-13.98-12.4c-12.54-4.18-26.05-6.39-39.07-6.39c-13.11,0-25.53,2.16-36.89,6.41
		c-5.83,2.18-11.47,5.15-16.76,8.78c-0.75-29.67-15.68-57.32-44.55-82.37c-5.35-4.64-10.75-8.4-15.97-12.03
		c-4.62-3.22-8.99-6.25-12.63-9.47c-4.28-3.78-10.22-7.76-15.47-11.27c-1.72-1.15-4.04-2.7-4.93-3.36
		c-2.24-1.98-6.39-5.24-10.54-8.07c-8.39-5.74-14.93-8.59-21.2-9.24c-1-0.1-1.99-0.15-2.97-0.15c-9.09,0-17.53,4.42-23.14,12.12
		c-2.99,4.11-4.68,8.36-5.81,11.6c-0.6,1.73-1.18,3.45-1.75,5.15c-1.33,3.97-2.58,7.71-4.08,11.14
		c-3.14,7.16-6.86,14.33-10.81,21.91c-9.7,18.65-19.73,37.93-23.11,60.88c-2.35,16.01-1.27,30.85,3.22,44.11
		c3.34,9.85,8.44,18.94,15.17,27.01c11.34,13.6,30.39,27.3,51.48,32.63c-48.78,13.37-96.67,34.7-130.94,73.61
		c-24.85,28.22-43.6,61.28-54.23,95.6c-6.84,22.1-9.33,47.08-11.52,69.13c-0.5,5.07-0.98,9.86-1.5,14.57
		c-9.43,85.65,2.11,137.7,5.02,148.97c0.11,0.43,0.2,0.86,0.27,1.3c7.34,46.32,20.72,81.37,42.01,110.18
		c5.86,7.92,12.11,14.95,18.65,21c0.61,0.57,1.19,1.17,1.7,1.84c0.24,0.32,0.49,0.63,0.73,0.94c0,0,31.13,36.58,122.03,60.73
		c0.55,0.15,1.11,0.26,1.68,0.35l2.87,0.43c1.16,0.17,2.3,0.48,3.39,0.91c5.74,2.31,9.54,5.61,13.51,9.05
		c14.73,12.81,34.97,17.77,53.91,19.96c33.84,3.93,59.68,3.77,86.65-18.49c14.22-11.74,30.73-20.96,43.1-23.21
		c8.68-1.58,17.43-3.24,25.77-6.19c17.25-6.09,35.07-12.03,51.19-21.06c19.41-10.87,36.74-25.41,51.79-41.73
		c7.31-7.92,14.11-16.32,20.39-25.08c1.02-1.42,1.97-2.93,2.49-4.59c0.13-0.4,0.33-0.77,0.59-1.11
		c17.4-21.58,32.71-69.17,35.09-99.15C806.8,648.25,808.97,606.28,806.7,563.08z"/>
	<path class="st0" d="M457.5,890.26c6.34,8.45,8.14,17.68-1.11,17.68c-7.87,0-14.57-16.23-39.11-21.77
		c-31.03-7.01-76.33-33.77-82.69-96.18c-4.19-41.19-19.67-41.19-24.09-82.08c-0.78-7.21,0.78-28.07-8.29-29.22
		c-1.68-0.21-2.67,0.39-3.87,1.59c-3.32,3.32-6.11,14.46-7.74,19.89c-3.32,11.05,2.21,35.37,3.32,45.31
		c1.18,10.64-5.69,26.38,2.21,35.37c6.31,7.17,18.79,20.84,18.79,29.84c0,4.45-1.04,11.35,1.04,17.91c1.5,4.73-4,8.53-7.94,5.52
		c-6.42-4.91-14.52-12.49-22.94-23.88c-19.12-25.87-31.5-58.5-38.25-102.37c0,0-14.98-50.57-4.86-142.52
		c2.83-25.69,4.54-54.99,12.16-79.57c9.9-31.96,27.63-62.46,49.7-87.53c7.66-8.7,67.63-64.24,74.07-38.46
		c4.42,17.68-13.23,33.83-21.56,46.07c-17.98,26.44-40.81,54.84-44.75,87.65c-3.37,28.12-14.56,68.12-3.32,90.62
		c2.64,5.28,5.85,23.77,13.46,24.55c6.65,0.68,5.87-13.34,5.66-16.99c-0.69-12.31-0.49-23.93,0.99-36.27
		c2.38-19.82,4.3-39.93,10.33-59.06c7.53-23.87,23.7-45.71,37.48-66.37c6.75-10.12,25.87-29.25,31.5-55.12
		c5.62-25.87,22.5-51.75,46.12-50.62s6.75,45,6.75,45s-12.37,14.62-25.87,23.62c0,0-18,16.87-25.87,45c0,0-6.75,33.75,4.5,49.5
		c11.25,15.75,14.29-6.95,15.42-17.07c2.32-20.86,7.74-40.89,28.46-53.8c10.33-6.43,22.38-21.35,27.91-8.09
		c7.42,17.82,4.82,436.39-3.16,444.37c-7.98,7.98-16.87,2.46-23.62-21.17c-6.75-23.62,4.5-48.37-23.62-69.75
		c-28.12-21.37-49.5-51.75-33.75-86.62c15.75-34.87,34.32-38.28,39.66-59.08c0,0,3.09-41.04-1.41-52.29
		c-4.5-11.25-18-7.87-19.12,12.37c-1.12,20.25-5.62,39.37-12.37,43.87c-6.75,4.5-35.68,28.84-42.59,45.36
		c-6.91,16.52-4.66,33.39-4.66,39.02c0,5.62,3.37,21.37,12.37,46.12c9,24.75-4.5,34.87-2.25,47.25
		c1.93,10.61,7.83,21.01,19.69,12.94c3.31-2.25,7.42-8.7,9-12.37c1.95-4.53,1.12-13.5,11.25-9c15.18,6.75,12.94,25.31,11.81,42.19
		s9,25.87,9,25.88C433.8,860.8,447.55,877,457.5,890.26z"/>
	<path class="st0" d="M518.53,467.69c0,0-2.25-118.12,6.75-128.25c7.5-8.44,13.44,1.09,15.21,4.51c0.58,1.13,1.22,2.22,1.89,3.3
		c5.74,9.33,28.08,45.8,31.92,54.62c4.42,10.13,14.54,27.01,8.92,47.26c-5.62,20.25-12.37,19.12-13.5,43.87
		c-1.12,24.75,4.5,34.87,13.5,40.5c9,5.62,11.32-17.55,11.32-36.67c0-19.12,25.35-39.73,18.79-69.62
		c-3.43-15.62-8.44-22.77-14.37-37.58c-8.84-22.1-26.91-65.48,6.63-57.47c14.16,3.38,37.93,15.22,47.7,30.41
		c5.37,8.34,11.31,15.47,12.05,25.81c1.12,15.75,10.12,63,9,100.12c-1.12,37.12,33.11,54.16,39.55,61.37
		c6.59,7.38,13.26,18.79,13.26,43.1c0,17.8,1.1,21,4.47,23.19c4.24,2.76,8.8-5.84,10.02-8.45c7.13-15.2,3.11-34.8,4.3-51.21
		c1.07-14.72,3.84-28.35,3.32-43.1c-1.11-30.94-13.26-32.05-16.42-30.53c-5.91,2.84-3.47,12.75-3.47,18.37s0,22.1-12.16,14.37
		c-3.82-2.43-16.58-11.65-16.58-34.26c0-23.21-3.19-37.47-4.42-54.15c-1.16-15.75-1.28-35.44,8.84-30.94
		c10.12,4.5,24.41,17.99,34.53,28.12c34.63,34.64,42.57,93.08,45.04,139.87c2.33,44.22-0.3,87.93-3.8,131.99
		c-2.18,27.47-17.2,72.46-31.43,88.42c-1.96,2.19-5.92-2.58-5.31-9.29c1.29-14.15,3.45-30.83,2.25-45
		c-1.19-14.05-2.25-24.75-12.37-27c-5.6-1.24-6.75,2.25-6.75,20.25c0,18-3.37,49.5-13.5,66.37s-33.75,60.75-54,70.87
		c-20.25,10.12-22.5-5.62-21.37-11.25c1.12-5.62,10.12-16.87,18-25.87c7.87-9,17.83-31.71,21.37-58.5
		c2.67-20.23,5.52-58.87-1.13-85.5c-1.98-7.94-13.05-14.03-17.05-5.05c-2.77,6.23-0.74,16.79-1.06,23.62
		c-0.46,9.71-1.39,19.4-2.61,29.04c-2.41,19.06-7.03,38.6-13.02,57c-10.73,32.96-43.76,67.11-50.51,72.74
		c-12.92,10.77-38.44,74.98-57.47,32.05c-3.49-7.87-3.47-41.56,5.53-66.31s31.14-40.09,36.47-48.63c5.53-8.84,17.61-23.6,15.36-46.1
		c-1.53-15.33-1.44-42.74-1.22-58.66c0.15-11.18,2.06-22.29,5.9-32.79c0.96-2.62,4.21-9.29,5.38-11.64
		c5.62-11.25,19.03-27.2,14.69-34.15c-6.96-11.16-29.47,9.54-34.59,14.26C568.48,617.94,564.29,634.51,562,654
		c-2.21,18.79-1,42-3,62c-0.89,8.87-2.92,18.04-7.28,25.89c-3.73,6.73-12.03,16.01-20.72,13.11c-8.04-2.68-13-18-12.72-33.83
		c0.27-15.33,0-28.64,0-28.64L518.53,467.69z"/>
	<path class="st1" d="M383.69,263.24c10.91,13.08,33.6,28.18,55.02,26.92c11.65-0.69,20.29-7.29,22.42-18.96
		c2.08-11.39-0.79-23.56-4.31-34.37c-1.8-5.53-3.92-10.96-6.49-16.18c-2.56-5.2-6.15-9.54-9.57-14.19c-1-1.36-7.27-9.59-2.56-9.94
		c3.98-0.3,9.65,2.87,12.66,5.22c19.89,15.47,23.21,26.52,26.52,35.37c3.32,8.84,5.53,38.68,15.47,43.1
		c9.95,4.42,26.42-20.67,29.84-49.73c3.73-31.69-13.29-56.63-36.45-76.72c-9.11-7.9-19.73-13.66-28.75-21.63
		c-5.46-4.83-17.68-12.16-20.2-14.46c-2.18-1.99-14.15-11.5-19.59-12.07c-5.1-0.53-7.38,4.91-8.76,8.86
		c-2.12,6.06-3.86,11.94-6.46,17.88c-11.11,25.36-28.19,49.26-32.29,77.15c-1.65,11.23-1.38,22.97,2.29,33.81
		C375,250.75,378.85,257.44,383.69,263.24z"/>
	<path class="st1" d="M537.07,278c-1.11-2.21-1.19-7.01-0.92-9.31c1.03-8.7,5.17-15.41,10.87-21.63
		c6.25-6.84,13.95-12.41,22.78-15.72c19.29-7.23,41.93-6.18,61.22,0.24c4.05,1.35-1.76,16.22-2.69,18.77
		c-5.86,16.02-16.87,31.62-30.46,42.01c-5.83,4.46-14.67,12.17-22.58,10.64c-14.99-2.9-6.49-20.64-2.83-26.11
		c6.63-9.95,16.58-17.68,22.1-19.89c5.53-2.21,4.42-3.32-3.32-4.42c-7.74-1.11-21.55,2.29-32.05,18.79
		C551.43,283.53,541.26,286.39,537.07,278z"/>
</g>
<rect x="1046" y="-2" class="st1" width="56" height="56"/>
<rect x="1046" y="77" class="st0" width="56" height="56"/>
</svg>
